<svg width="194" height="194" viewBox="0 0 194 194" fill="none" xmlns="http://www.w3.org/2000/svg">
<rect width="194" height="194" rx="97" fill="#FB8A05"/>
<path d="M113.188 75.25H113.243" stroke="white" stroke-width="8" stroke-linecap="round" stroke-linejoin="round"/>
<path d="M124.312 53H68.6875C59.4712 53 52 60.4712 52 69.6875V125.312C52 134.529 59.4712 142 68.6875 142H124.312C133.529 142 141 134.529 141 125.312V69.6875C141 60.4712 133.529 53 124.312 53Z" stroke="white" stroke-width="8" stroke-linecap="round" stroke-linejoin="round"/>
<path d="M52 114.187L74.25 91.9371C76.7868 89.4961 79.6645 88.2109 82.5938 88.2109C85.523 88.2109 88.4007 89.4961 90.9375 91.9371L118.75 119.75" stroke="white" stroke-width="8" stroke-linecap="round" stroke-linejoin="round"/>
<path d="M107.625 108.625L113.187 103.062C115.724 100.621 118.602 99.3359 121.531 99.3359C124.46 99.3359 127.338 100.621 129.875 103.062L141 114.187" stroke="white" stroke-width="8" stroke-linecap="round" stroke-linejoin="round"/>
</svg>
