<svg width="138" height="128" viewBox="0 0 138 128" fill="none" xmlns="http://www.w3.org/2000/svg">
<line x1="38.8745" y1="76.8411" x2="76.4967" y2="98.4973" stroke="#368EF5" stroke-width="3"/>
<path opacity="0.3" d="M1 93.1982C9.0282 95.7315 27.7591 96.1516 38.457 77.5667C49.1549 58.9818 39.2712 43.1918 32.9922 37.6199" stroke="#368EF5" stroke-width="4"/>
<path opacity="0.3" d="M5.4295 85.5029C11.2126 87.322 24.7126 87.6006 32.448 74.1623C40.1834 60.724 33.0806 49.3318 28.5623 45.3155" stroke="#368EF5" stroke-width="4"/>
<path opacity="0.3" d="M10.3514 76.9526C13.8616 78.1059 21.9929 78.4823 26.4366 70.7624C30.8804 63.0425 26.4241 56.2817 23.6404 53.8663" stroke="#368EF5" stroke-width="4"/>
<line y1="-1.5" x2="43.41" y2="-1.5" transform="matrix(0.242402 0.970176 0.970176 -0.2424 96.5813 32.5815)" stroke="#368EF5" stroke-width="3"/>
<path opacity="0.3" d="M121.232 1C121.469 9.41504 116.743 27.5446 95.9381 32.7427C75.1336 37.9407 62.6548 24.1099 59.016 16.5448" stroke="#368EF5" stroke-width="4"/>
<path opacity="0.3" d="M112.617 3.15234C112.782 9.21252 109.352 22.2725 94.3092 26.0311C79.266 29.7897 70.2552 19.8381 67.6301 14.3924" stroke="#368EF5" stroke-width="4"/>
<path opacity="0.3" d="M103.046 5.54395C103.193 9.23577 101.328 17.1592 92.6864 19.3184C84.0445 21.4776 78.7629 15.3398 77.2023 12.001" stroke="#368EF5" stroke-width="4"/>
</svg>
