<svg width="194" height="194" viewBox="0 0 194 194" fill="none" xmlns="http://www.w3.org/2000/svg">
<rect width="194" height="194" rx="97" fill="#FB8A05"/>
<path d="M60.5568 98.5937C60.5568 97.5155 60.9893 96.4816 61.7591 95.7192C62.5289 94.9569 63.5729 94.5286 64.6616 94.5286H72.8712V86.3985C72.8712 85.3204 73.3037 84.2865 74.0735 83.5241C74.8433 82.7618 75.8873 82.3335 76.976 82.3335C78.0646 82.3335 79.1087 82.7618 79.8785 83.5241C80.6483 84.2865 81.0808 85.3204 81.0808 86.3985V94.5286H89.2904C90.379 94.5286 91.4231 94.9569 92.1929 95.7192C92.9627 96.4816 93.3952 97.5155 93.3952 98.5937C93.3952 99.6718 92.9627 100.706 92.1929 101.468C91.4231 102.23 90.379 102.659 89.2904 102.659H81.0808V110.789C81.0808 111.867 80.6483 112.901 79.8785 113.663C79.1087 114.426 78.0646 114.854 76.976 114.854C75.8873 114.854 74.8433 114.426 74.0735 113.663C73.3037 112.901 72.8712 111.867 72.8712 110.789V102.659H64.6616C63.5729 102.659 62.5289 102.23 61.7591 101.468C60.9893 100.706 60.5568 99.6718 60.5568 98.5937ZM122.088 110.789C122.088 112.945 121.223 115.013 119.683 116.538C118.144 118.062 116.055 118.919 113.878 118.919C111.701 118.919 109.613 118.062 108.073 116.538C106.533 115.013 105.669 112.945 105.669 110.789C105.669 108.633 106.533 106.565 108.073 105.04C109.613 103.515 111.701 102.659 113.878 102.659C116.055 102.659 118.144 103.515 119.683 105.04C121.223 106.565 122.088 108.633 122.088 110.789ZM122.088 94.5286C124.265 94.5286 126.353 93.6721 127.893 92.1474C129.432 90.6227 130.297 88.5548 130.297 86.3985C130.297 84.2423 129.432 82.1744 127.893 80.6497C126.353 79.125 124.265 78.2685 122.088 78.2685C119.91 78.2685 117.822 79.125 116.283 80.6497C114.743 82.1744 113.878 84.2423 113.878 86.3985C113.878 88.5548 114.743 90.6227 116.283 92.1474C117.822 93.6721 119.91 94.5286 122.088 94.5286ZM40 98.5937C40 88.8906 43.8922 79.585 50.8204 72.7239C57.7486 65.8628 67.1452 62.0083 76.9431 62.0083H118.057C127.855 62.0083 137.251 65.8628 144.18 72.7239C151.108 79.585 155 88.8906 155 98.5937C155 108.297 151.108 117.602 144.18 124.463C137.251 131.325 127.855 135.179 118.057 135.179H76.9431C67.1452 135.179 57.7486 131.325 50.8204 124.463C43.8922 117.602 40 108.297 40 98.5937ZM76.9431 70.1384C69.3225 70.1384 62.014 73.1363 56.6254 78.4727C51.2369 83.8091 48.2096 91.0469 48.2096 98.5937C48.2096 106.14 51.2369 113.378 56.6254 118.715C62.014 124.051 69.3225 127.049 76.9431 127.049H118.057C125.677 127.049 132.986 124.051 138.374 118.715C143.763 113.378 146.79 106.14 146.79 98.5937C146.79 91.0469 143.763 83.8091 138.374 78.4727C132.986 73.1363 125.677 70.1384 118.057 70.1384H76.9431Z" fill="white"/>
</svg>
