<svg width="194" height="194" viewBox="0 0 194 194" fill="none" xmlns="http://www.w3.org/2000/svg">
<rect width="194" height="194" rx="97" fill="#FB8A05"/>
<path fill-rule="evenodd" clip-rule="evenodd" d="M121.024 60.7966C113.765 55.9461 105.231 53.3571 96.5 53.3571C84.7926 53.3571 73.5647 58.0079 65.2863 66.2863C57.0079 74.5647 52.3572 85.7926 52.3572 97.5C52.3572 106.231 54.9461 114.765 59.7966 122.024C64.6471 129.284 71.5412 134.942 79.6073 138.283C87.6733 141.624 96.549 142.498 105.112 140.795C113.675 139.091 121.54 134.887 127.714 128.714C133.887 122.54 138.091 114.675 139.795 106.112C141.498 97.549 140.624 88.6733 137.283 80.6073C133.942 72.5412 128.284 65.647 121.024 60.7966ZM67.8881 54.6793C76.3573 49.0204 86.3143 46 96.5 46C110.159 46 123.258 51.4259 132.916 61.084C142.574 70.7421 148 83.8413 148 97.5C148 107.686 144.98 117.643 139.321 126.112C133.662 134.581 125.619 141.182 116.208 145.08C106.798 148.978 96.4429 149.998 86.4529 148.01C76.4628 146.023 67.2864 141.118 60.084 133.916C52.8816 126.714 47.9767 117.537 45.9896 107.547C44.0024 97.5571 45.0223 87.2022 48.9202 77.7918C52.8181 68.3814 59.419 60.3382 67.8881 54.6793ZM75.5058 122.172C76.1957 122.862 77.1313 123.25 78.107 123.25C78.6779 123.249 79.2408 123.116 79.7513 122.86L123.894 100.789C124.504 100.483 125.017 100.013 125.376 99.4323C125.735 98.8515 125.924 98.1824 125.924 97.4999C125.924 96.8173 125.735 96.1482 125.376 95.5674C125.017 94.9867 124.504 94.5171 123.894 94.2112L79.7513 72.1398C79.1906 71.8596 78.5676 71.7274 77.9415 71.7556C77.3153 71.7838 76.7067 71.9715 76.1735 72.301C75.6403 72.6304 75.2 73.0907 74.8946 73.638C74.5892 74.1854 74.4287 74.8017 74.4284 75.4285V119.571C74.4284 120.547 74.816 121.483 75.5058 122.172ZM114.025 97.4999L81.7855 113.619V81.3804L114.025 97.4999Z" fill="white"/>
</svg>
