<svg width="214" height="218" viewBox="0 0 214 218" fill="none" xmlns="http://www.w3.org/2000/svg">
<line x1="159.006" y1="42.5296" x2="192.967" y2="71.0538" stroke="white" stroke-width="3"/>
<path opacity="0.3" d="M118 52.1704C125.621 56.157 144.386 59.936 158.477 43.1595C172.567 26.383 165.455 8.72977 160.138 2.00021" stroke="white" stroke-width="4"/>
<path opacity="0.3" d="M123.834 45.2236C129.325 48.0896 142.854 50.7889 153.043 38.6582C163.231 26.5275 158.128 13.7961 154.303 8.94672" stroke="white" stroke-width="4"/>
<path opacity="0.3" d="M130.317 37.5059C133.641 39.2948 141.752 41.1305 147.605 34.1618C153.458 27.1931 150.188 19.5943 147.821 16.6659" stroke="white" stroke-width="4"/>
<line x1="37.2236" y1="181.142" x2="17.1207" y2="203.16" stroke="white" stroke-width="3"/>
<path opacity="0.3" d="M31.5249 153C28.6354 158.008 25.5755 170.507 36.4521 180.437C47.3287 190.368 59.3835 186.082 64.0514 182.697" stroke="white" stroke-width="4"/>
<path opacity="0.3" d="M36.0286 157.112C33.951 160.72 31.7619 169.732 39.6265 176.913C47.4911 184.093 56.1843 181.02 59.5478 178.585" stroke="white" stroke-width="4"/>
<path opacity="0.3" d="M41.0326 161.681C39.7386 163.864 38.2802 169.261 42.7981 173.386C47.3161 177.511 52.5109 175.525 54.5436 174.017" stroke="white" stroke-width="4"/>
</svg>
