<svg width="153" height="176" viewBox="0 0 153 176" fill="none" xmlns="http://www.w3.org/2000/svg">
<line x1="65.0424" y1="50.025" x2="33.9984" y2="95.0745" stroke="white" stroke-width="3"/>
<path opacity="0.3" d="M48.6827 1C44.6811 10.8262 42.2414 34.3126 64.4953 49.6479C86.7492 64.9833 107.593 54.1794 115.233 46.8605" stroke="white" stroke-width="4"/>
<path opacity="0.3" d="M57.8973 7.3501C55.0219 14.429 53.294 31.3589 69.3853 42.4475C85.4766 53.5362 100.512 45.7767 106.018 40.5108" stroke="white" stroke-width="4"/>
<path opacity="0.3" d="M68.1359 14.4053C66.329 18.697 65.0261 28.8729 74.2701 35.2429C83.514 41.613 92.4616 36.7052 95.78 33.455" stroke="white" stroke-width="4"/>
<line y1="-1.5" x2="54.7101" y2="-1.5" transform="matrix(-0.986621 0.163032 0.163032 0.986621 115.071 127.253)" stroke="white" stroke-width="3"/>
<path opacity="0.3" d="M152.227 161.442C141.632 160.882 119.341 153.094 114.935 126.429C110.528 99.7646 129.176 85.5008 139.051 81.702" stroke="white" stroke-width="4"/>
<path opacity="0.3" d="M150.403 150.401C142.773 149.99 126.718 144.349 123.532 125.068C120.346 105.788 133.766 95.4841 140.875 92.7424" stroke="white" stroke-width="4"/>
<path opacity="0.3" d="M148.375 138.134C143.723 137.942 133.96 134.791 132.13 123.715C130.3 112.639 138.549 106.63 142.902 105.011" stroke="white" stroke-width="4"/>
</svg>
