<svg width="48" height="39" viewBox="0 0 48 39" fill="none" xmlns="http://www.w3.org/2000/svg">
<g id="Union">
<path fill-rule="evenodd" clip-rule="evenodd" d="M31.6318 4.53488C31.9209 4.824 32.0833 5.21612 32.0833 5.625V11.7917C32.0833 12.2005 32.2458 12.5927 32.5349 12.8818C32.824 13.1709 33.2161 13.3333 33.625 13.3333C34.0339 13.3333 34.426 13.1709 34.7151 12.8818C35.0042 12.5927 35.1667 12.2005 35.1667 11.7917V5.625C35.1667 4.39837 34.6794 3.22199 33.812 2.35463C32.9447 1.48728 31.7683 1 30.5417 1H5.875C4.64837 1 3.47199 1.48728 2.60463 2.35463C1.73728 3.22199 1.25 4.39837 1.25 5.625V33.375C1.25 34.6016 1.73728 35.778 2.60463 36.6454C3.47199 37.5127 4.64837 38 5.875 38H30.5417C31.7683 38 32.9447 37.5127 33.812 36.6454C34.6794 35.778 35.1667 34.6016 35.1667 33.375V27.2083C35.1667 26.7995 35.0042 26.4073 34.7151 26.1182C34.426 25.8291 34.0339 25.6667 33.625 25.6667C33.2161 25.6667 32.824 25.8291 32.5349 26.1182C32.2458 26.4073 32.0833 26.7995 32.0833 27.2083V33.375C32.0833 33.7839 31.9209 34.176 31.6318 34.4651C31.3427 34.7542 30.9505 34.9167 30.5417 34.9167H5.875C5.46612 34.9167 5.074 34.7542 4.78488 34.4651C4.49576 34.176 4.33333 33.7839 4.33333 33.375V5.625C4.33333 5.21612 4.49576 4.824 4.78488 4.53488C5.074 4.24576 5.46612 4.08333 5.875 4.08333H30.5417C30.9505 4.08333 31.3427 4.24576 31.6318 4.53488ZM13.6983 20.0908C13.776 20.278 13.8899 20.4482 14.0335 20.5914L23.2835 29.8414C23.4268 29.9847 23.597 30.0984 23.7843 30.176C23.9716 30.2536 24.1723 30.2935 24.375 30.2935C24.5777 30.2935 24.7784 30.2536 24.9657 30.176C25.153 30.0984 25.3232 29.9847 25.4665 29.8414C25.6098 29.698 25.7235 29.5279 25.8011 29.3406C25.8787 29.1533 25.9186 28.9526 25.9186 28.7499C25.9186 28.5472 25.8787 28.3464 25.8011 28.1592C25.7235 27.9719 25.6098 27.8017 25.4665 27.6584L18.8466 21.0415H45.9583C46.3672 21.0415 46.7593 20.8791 47.0485 20.59C47.3376 20.3009 47.5 19.9088 47.5 19.4999C47.5 19.091 47.3376 18.6989 47.0485 18.4098C46.7593 18.1206 46.3672 17.9582 45.9583 17.9582H18.8466L25.4665 11.3414C25.756 11.0519 25.9186 10.6593 25.9186 10.2499C25.9186 9.84049 25.756 9.44787 25.4665 9.15838C25.177 8.8689 24.7844 8.70627 24.375 8.70627C23.9656 8.70627 23.573 8.8689 23.2835 9.15838L14.0335 18.4084C13.8899 18.5516 13.776 18.7217 13.6983 18.909C13.6206 19.0963 13.5806 19.2971 13.5806 19.4999C13.5806 19.7027 13.6206 19.9035 13.6983 20.0908Z" fill="#368EF5"/>
<path d="M31.6318 4.53488L31.2782 4.88843V4.88843L31.6318 4.53488ZM32.5349 12.8818L32.8884 12.5282L32.8884 12.5282L32.5349 12.8818ZM34.7151 12.8818L34.3616 12.5282L34.3616 12.5282L34.7151 12.8818ZM33.812 2.35463L33.4585 2.70818L33.812 2.35463ZM2.60463 2.35463L2.95818 2.70818L2.60463 2.35463ZM2.60463 36.6454L2.25108 36.9989L2.60463 36.6454ZM34.7151 26.1182L34.3616 26.4718V26.4718L34.7151 26.1182ZM31.6318 34.4651L31.9853 34.8187L31.6318 34.4651ZM4.78488 34.4651L4.43132 34.8187H4.43132L4.78488 34.4651ZM14.0335 20.5914L14.3871 20.2378L14.3866 20.2374L14.0335 20.5914ZM13.6983 20.0908L14.1601 19.8991L14.1601 19.8991L13.6983 20.0908ZM23.2835 29.8414L22.9299 30.1949L23.2835 29.8414ZM23.7843 30.176L23.5929 30.6379L23.5929 30.6379L23.7843 30.176ZM25.8011 29.3406L26.2631 29.5319V29.5319L25.8011 29.3406ZM25.4665 27.6584L25.8201 27.3048L25.82 27.3047L25.4665 27.6584ZM18.8466 21.0415V20.5415H17.6391L18.4931 21.3952L18.8466 21.0415ZM47.0485 20.59L46.6949 20.2365V20.2365L47.0485 20.59ZM47.0485 18.4098L46.6949 18.7633L46.6949 18.7633L47.0485 18.4098ZM18.8466 17.9582L18.4931 17.6046L17.6391 18.4582H18.8466V17.9582ZM25.4665 11.3414L25.82 11.695L25.8201 11.6949L25.4665 11.3414ZM23.2835 9.15838L23.6371 9.51194L23.2835 9.15838ZM14.0335 18.4084L14.3866 18.7624L14.3871 18.7619L14.0335 18.4084ZM13.6983 18.909L14.1601 19.1007L14.1601 19.1006L13.6983 18.909ZM32.5833 5.625C32.5833 5.08352 32.3682 4.56421 31.9853 4.18132L31.2782 4.88843C31.4736 5.08378 31.5833 5.34873 31.5833 5.625H32.5833ZM32.5833 11.7917V5.625H31.5833V11.7917H32.5833ZM32.8884 12.5282C32.6931 12.3329 32.5833 12.0679 32.5833 11.7917H31.5833C31.5833 12.3331 31.7984 12.8525 32.1813 13.2353L32.8884 12.5282ZM33.625 12.8333C33.3487 12.8333 33.0838 12.7236 32.8884 12.5282L32.1813 13.2353C32.5642 13.6182 33.0835 13.8333 33.625 13.8333V12.8333ZM34.3616 12.5282C34.1662 12.7236 33.9013 12.8333 33.625 12.8333V13.8333C34.1665 13.8333 34.6858 13.6182 35.0687 13.2353L34.3616 12.5282ZM34.6667 11.7917C34.6667 12.0679 34.5569 12.3329 34.3616 12.5282L35.0687 13.2353C35.4516 12.8525 35.6667 12.3331 35.6667 11.7917H34.6667ZM34.6667 5.625V11.7917H35.6667V5.625H34.6667ZM33.4585 2.70818C34.2321 3.48177 34.6667 4.53098 34.6667 5.625H35.6667C35.6667 4.26577 35.1267 2.9622 34.1656 2.00108L33.4585 2.70818ZM30.5417 1.5C31.6357 1.5 32.6849 1.9346 33.4585 2.70818L34.1656 2.00108C33.2045 1.03995 31.9009 0.5 30.5417 0.5V1.5ZM5.875 1.5H30.5417V0.5H5.875V1.5ZM2.95818 2.70818C3.73177 1.9346 4.78098 1.5 5.875 1.5V0.5C4.51577 0.5 3.2122 1.03995 2.25108 2.00108L2.95818 2.70818ZM1.75 5.625C1.75 4.53098 2.1846 3.48177 2.95818 2.70818L2.25108 2.00108C1.28995 2.9622 0.75 4.26577 0.75 5.625H1.75ZM1.75 33.375V5.625H0.75V33.375H1.75ZM2.95818 36.2918C2.1846 35.5182 1.75 34.469 1.75 33.375H0.75C0.75 34.7342 1.28995 36.0378 2.25108 36.9989L2.95818 36.2918ZM5.875 37.5C4.78098 37.5 3.73177 37.0654 2.95818 36.2918L2.25108 36.9989C3.2122 37.96 4.51577 38.5 5.875 38.5V37.5ZM30.5417 37.5H5.875V38.5H30.5417V37.5ZM33.4585 36.2918C32.6849 37.0654 31.6357 37.5 30.5417 37.5V38.5C31.9009 38.5 33.2045 37.96 34.1656 36.9989L33.4585 36.2918ZM34.6667 33.375C34.6667 34.469 34.2321 35.5182 33.4585 36.2918L34.1656 36.9989C35.1267 36.0378 35.6667 34.7342 35.6667 33.375H34.6667ZM34.6667 27.2083V33.375H35.6667V27.2083H34.6667ZM34.3616 26.4718C34.5569 26.6671 34.6667 26.9321 34.6667 27.2083H35.6667C35.6667 26.6668 35.4516 26.1475 35.0687 25.7647L34.3616 26.4718ZM33.625 26.1667C33.9013 26.1667 34.1662 26.2764 34.3616 26.4718L35.0687 25.7647C34.6858 25.3818 34.1665 25.1667 33.625 25.1667V26.1667ZM32.8884 26.4718C33.0838 26.2764 33.3487 26.1667 33.625 26.1667V25.1667C33.0835 25.1667 32.5642 25.3818 32.1813 25.7647L32.8884 26.4718ZM32.5833 27.2083C32.5833 26.9321 32.6931 26.6671 32.8884 26.4718L32.1813 25.7647C31.7984 26.1475 31.5833 26.6668 31.5833 27.2083H32.5833ZM32.5833 33.375V27.2083H31.5833V33.375H32.5833ZM31.9853 34.8187C32.3682 34.4358 32.5833 33.9165 32.5833 33.375H31.5833C31.5833 33.6513 31.4736 33.9162 31.2782 34.1116L31.9853 34.8187ZM30.5417 35.4167C31.0831 35.4167 31.6025 35.2016 31.9853 34.8187L31.2782 34.1116C31.0829 34.3069 30.8179 34.4167 30.5417 34.4167V35.4167ZM5.875 35.4167H30.5417V34.4167H5.875V35.4167ZM4.43132 34.8187C4.81421 35.2016 5.33352 35.4167 5.875 35.4167V34.4167C5.59873 34.4167 5.33378 34.3069 5.13843 34.1116L4.43132 34.8187ZM3.83333 33.375C3.83333 33.9165 4.04844 34.4358 4.43132 34.8187L5.13843 34.1116C4.94308 33.9162 4.83333 33.6513 4.83333 33.375H3.83333ZM3.83333 5.625V33.375H4.83333V5.625H3.83333ZM4.43132 4.18132C4.04844 4.56421 3.83333 5.08352 3.83333 5.625H4.83333C4.83333 5.34873 4.94308 5.08378 5.13843 4.88843L4.43132 4.18132ZM5.875 3.58333C5.33352 3.58333 4.81421 3.79844 4.43132 4.18132L5.13843 4.88843C5.33378 4.69308 5.59873 4.58333 5.875 4.58333V3.58333ZM30.5417 3.58333H5.875V4.58333H30.5417V3.58333ZM31.9853 4.18132C31.6025 3.79844 31.0831 3.58333 30.5417 3.58333V4.58333C30.8179 4.58333 31.0829 4.69308 31.2782 4.88843L31.9853 4.18132ZM14.3866 20.2374C14.2896 20.1406 14.2126 20.0257 14.1601 19.8991L13.2365 20.2824C13.3394 20.5304 13.4903 20.7557 13.6804 20.9454L14.3866 20.2374ZM23.6371 29.4878L14.3871 20.2378L13.6799 20.9449L22.9299 30.1949L23.6371 29.4878ZM23.9756 29.7141C23.849 29.6616 23.734 29.5847 23.6371 29.4878L22.9299 30.1949C23.1197 30.3847 23.345 30.5352 23.5929 30.6379L23.9756 29.7141ZM24.375 29.7935C24.2379 29.7935 24.1022 29.7665 23.9756 29.7141L23.5929 30.6379C23.8409 30.7406 24.1066 30.7935 24.375 30.7935V29.7935ZM24.7744 29.7141C24.6478 29.7665 24.5121 29.7935 24.375 29.7935V30.7935C24.6434 30.7935 24.9091 30.7406 25.1571 30.6379L24.7744 29.7141ZM25.1129 29.4878C25.016 29.5847 24.901 29.6616 24.7744 29.7141L25.1571 30.6379C25.405 30.5352 25.6303 30.3847 25.8201 30.1949L25.1129 29.4878ZM25.3392 29.1493C25.2867 29.2759 25.2099 29.3909 25.1129 29.4878L25.8201 30.1949C26.0098 30.0052 26.1604 29.7799 26.2631 29.5319L25.3392 29.1493ZM25.4186 28.7499C25.4186 28.8869 25.3916 29.0226 25.3392 29.1493L26.2631 29.5319C26.3658 29.284 26.4186 29.0182 26.4186 28.7499H25.4186ZM25.3392 28.3505C25.3916 28.4771 25.4186 28.6128 25.4186 28.7499H26.4186C26.4186 28.4815 26.3658 28.2158 26.2631 27.9678L25.3392 28.3505ZM25.1129 28.0119C25.2099 28.1088 25.2867 28.2239 25.3392 28.3505L26.2631 27.9678C26.1604 27.7199 26.0098 27.4946 25.8201 27.3048L25.1129 28.0119ZM18.4931 21.3952L25.113 28.012L25.82 27.3047L19.2001 20.6879L18.4931 21.3952ZM45.9583 20.5415H18.8466V21.5415H45.9583V20.5415ZM46.6949 20.2365C46.4996 20.4318 46.2346 20.5415 45.9583 20.5415V21.5415C46.4998 21.5415 47.0191 21.3264 47.402 20.9436L46.6949 20.2365ZM47 19.4999C47 19.7762 46.8903 20.0411 46.6949 20.2365L47.402 20.9436C47.7849 20.5607 48 20.0414 48 19.4999H47ZM46.6949 18.7633C46.8903 18.9587 47 19.2236 47 19.4999H48C48 18.9584 47.7849 18.4391 47.402 18.0562L46.6949 18.7633ZM45.9583 18.4582C46.2346 18.4582 46.4996 18.568 46.6949 18.7633L47.402 18.0562C47.0191 17.6733 46.4998 17.4582 45.9583 17.4582V18.4582ZM18.8466 18.4582H45.9583V17.4582H18.8466V18.4582ZM25.113 10.9877L18.4931 17.6046L19.2001 18.3119L25.82 11.695L25.113 10.9877ZM25.4186 10.2499C25.4186 10.5267 25.3087 10.7921 25.1129 10.9878L25.8201 11.6949C26.2033 11.3117 26.4186 10.7919 26.4186 10.2499H25.4186ZM25.1129 9.51194C25.3087 9.70765 25.4186 9.9731 25.4186 10.2499H26.4186C26.4186 9.70789 26.2033 9.18808 25.8201 8.80483L25.1129 9.51194ZM24.375 9.20627C24.6518 9.20627 24.9172 9.31622 25.1129 9.51194L25.8201 8.80483C25.4368 8.42158 24.917 8.20627 24.375 8.20627V9.20627ZM23.6371 9.51194C23.8328 9.31622 24.0982 9.20627 24.375 9.20627V8.20627C23.833 8.20627 23.3132 8.42158 22.9299 8.80483L23.6371 9.51194ZM14.3871 18.7619L23.6371 9.51194L22.9299 8.80483L13.6799 18.0548L14.3871 18.7619ZM14.1601 19.1006C14.2126 18.9741 14.2896 18.8591 14.3866 18.7624L13.6804 18.0544C13.4903 18.244 13.3394 18.4693 13.2365 18.7174L14.1601 19.1006ZM14.0806 19.4999C14.0806 19.3629 14.1076 19.2272 14.1601 19.1007L13.2365 18.7174C13.1336 18.9654 13.0806 19.2313 13.0806 19.4999H14.0806ZM14.1601 19.8991C14.1076 19.7726 14.0806 19.6369 14.0806 19.4999H13.0806C13.0806 19.7684 13.1336 20.0343 13.2365 20.2824L14.1601 19.8991Z" fill="#368EF5"/>
</g>
</svg>
