<svg width="810" height="171" viewBox="0 0 810 171" fill="none" xmlns="http://www.w3.org/2000/svg">
<path fill-rule="evenodd" clip-rule="evenodd" d="M799.924 28.262V1.54972e-06L764.659 0V28.262L754.584 28.2618V114.514C754.584 129.07 765.809 141.005 780.076 142.134V163.908H0V170.908H783.576H787.076V167.408V141.81C800.099 139.544 810 128.185 810 114.514V28.2618L799.924 28.262ZM764.727 115.506C764.727 105.787 772.606 97.9077 782.326 97.9077C792.045 97.9077 799.924 105.787 799.924 115.506C799.924 125.226 792.045 133.105 782.326 133.105C772.606 133.105 764.727 125.226 764.727 115.506Z" fill="#368EF5" fill-opacity="0.7"/>
</svg>
