<svg width="1188" height="180" viewBox="0 0 1188 180" fill="none" xmlns="http://www.w3.org/2000/svg">
<path fill-rule="evenodd" clip-rule="evenodd" d="M1186.65 54.0491C1186.02 59.6152 1185.41 65.038 1185.41 69.9904C1185.41 72.4758 1185.46 75.0797 1185.51 77.7607V77.7617C1186 104.327 1186.63 138.466 1141.78 139.95V176.045V179.545H1138.28L1057.55 179.545V179.533L0 179.533V172.533L1057.55 172.533V172.545L1134.78 172.545V139.925C1089.58 138.155 1089.88 105.344 1090.14 76.4134C1090.16 74.2458 1090.18 72.0998 1090.18 69.9904C1090.18 64.6246 1089.66 59.0228 1089.14 53.4268C1086.73 27.4482 1084.34 1.59393 1133.9 0.053299V51.9233H1141.09V0C1192.68 0.836395 1189.5 28.9022 1186.65 54.0456L1186.65 54.0491ZM1164.5 118.673C1159.07 122.216 1150.54 125.691 1138.05 125.691C1125.57 125.691 1117.06 122.216 1111.64 118.672C1108.94 116.904 1107.02 115.128 1105.76 113.779C1105.14 113.105 1104.68 112.537 1104.37 112.13C1104.21 111.926 1104.1 111.762 1104.02 111.645C1104 111.616 1103.98 111.59 1103.96 111.567C1103.95 111.543 1103.93 111.523 1103.92 111.505L1103.89 111.463L1103.88 111.449L1103.88 111.444L1103.88 111.442C1103.88 111.441 1103.88 111.44 1105.15 110.641C1106.42 109.842 1106.42 109.841 1106.42 109.84L1106.43 109.855C1106.43 109.865 1106.44 109.878 1106.45 109.896L1106.49 109.942C1106.54 110.023 1106.63 110.15 1106.76 110.317C1107.01 110.651 1107.41 111.141 1107.96 111.737C1109.07 112.929 1110.81 114.541 1113.28 116.161C1118.22 119.391 1126.16 122.691 1138.05 122.691C1149.94 122.691 1157.91 119.391 1162.86 116.16C1165.35 114.539 1167.1 112.927 1168.21 111.734C1168.77 111.138 1169.17 110.647 1169.42 110.313C1169.55 110.146 1169.64 110.019 1169.7 109.937C1169.73 109.897 1169.75 109.867 1169.76 109.85L1169.77 109.836C1169.77 109.836 1169.77 109.837 1171.03 110.641C1172.3 111.445 1172.3 111.446 1172.3 111.447L1172.3 111.449L1172.29 111.454L1172.28 111.468L1172.26 111.51C1172.23 111.544 1172.2 111.591 1172.16 111.649C1172.08 111.766 1171.96 111.93 1171.81 112.134C1171.5 112.541 1171.03 113.109 1170.4 113.783C1169.14 115.131 1167.21 116.906 1164.5 118.673Z" fill="#368EF5" fill-opacity="0.7"/>
</svg>
