<svg width="194" height="194" viewBox="0 0 194 194" fill="none" xmlns="http://www.w3.org/2000/svg">
<rect x="1" y="1" width="192" height="192" rx="96" fill="#FB8A05"/>
<path d="M51 67.8333C51 63.8993 52.6155 60.1264 55.491 57.3446C58.3666 54.5628 62.2667 53 66.3333 53H127.667C131.733 53 135.633 54.5628 138.509 57.3446C141.385 60.1264 143 63.8993 143 67.8333V112.333C143 116.267 141.385 120.04 138.509 122.822C135.633 125.604 131.733 127.167 127.667 127.167H112.333V130.875C112.333 131.859 112.737 132.802 113.456 133.497C114.175 134.193 115.15 134.583 116.167 134.583H120C121.017 134.583 121.992 134.974 122.711 135.669C123.429 136.365 123.833 137.308 123.833 138.292C123.833 139.275 123.429 140.218 122.711 140.914C121.992 141.609 121.017 142 120 142H74C72.9833 142 72.0083 141.609 71.2894 140.914C70.5705 140.218 70.1667 139.275 70.1667 138.292C70.1667 137.308 70.5705 136.365 71.2894 135.669C72.0083 134.974 72.9833 134.583 74 134.583H77.8333C78.85 134.583 79.825 134.193 80.5439 133.497C81.2628 132.802 81.6667 131.859 81.6667 130.875V127.167H66.3333C62.2667 127.167 58.3666 125.604 55.491 122.822C52.6155 120.04 51 116.267 51 112.333V67.8333ZM58.6667 112.333C58.6667 114.3 59.4744 116.187 60.9122 117.578C62.35 118.969 64.3 119.75 66.3333 119.75H127.667C129.7 119.75 131.65 118.969 133.088 117.578C134.526 116.187 135.333 114.3 135.333 112.333H58.6667ZM135.333 104.917V67.8333C135.333 65.8663 134.526 63.9799 133.088 62.589C131.65 61.1981 129.7 60.4167 127.667 60.4167H66.3333C64.3 60.4167 62.35 61.1981 60.9122 62.589C59.4744 63.9799 58.6667 65.8663 58.6667 67.8333V104.917H135.333ZM104.667 130.875V127.167H89.3333V130.875C89.3333 132.173 89.1033 133.426 88.6817 134.583H105.357C104.91 133.394 104.677 132.14 104.667 130.875Z" fill="white"/>
</svg>
