<svg width="34" height="33" viewBox="0 0 34 33" fill="none" xmlns="http://www.w3.org/2000/svg">
<path d="M30.2734 0.420898H3.46094C1.75937 0.420898 0.367188 1.7709 0.367188 3.4209V29.4209C0.367188 31.0709 1.75937 32.4209 3.46094 32.4209H30.2734C31.975 32.4209 33.3672 31.0709 33.3672 29.4209V3.4209C33.3672 1.7709 31.975 0.420898 30.2734 0.420898ZM27.0951 22.8209L24.0777 22.8649C24.0777 22.8649 23.4259 22.9909 22.5762 22.4209C21.448 21.6709 20.3838 19.7149 19.5526 19.9709C18.7152 20.2269 18.7399 21.9829 18.7399 21.9829C18.7399 21.9829 18.7461 22.3589 18.5522 22.5569C18.346 22.7749 17.9335 22.8189 17.9335 22.8189H16.5867C16.5867 22.8189 13.6084 22.9949 10.9849 20.3429C8.12219 17.4549 5.59769 11.7249 5.59769 11.7249C5.59769 11.7249 5.44919 11.3489 5.61006 11.1689C5.7895 10.9629 6.27419 10.9509 6.27419 10.9509L9.50406 10.9329C9.50406 10.9329 9.80725 10.9829 10.0259 11.1389C10.2074 11.2649 10.3022 11.5069 10.3022 11.5069C10.3022 11.5069 10.8241 12.7889 11.515 13.9449C12.8618 16.2009 13.4929 16.6949 13.9508 16.4569C14.6149 16.1069 14.4149 13.2629 14.4149 13.2629C14.4149 13.2629 14.4272 12.2309 14.0808 11.7749C13.8106 11.4189 13.3011 11.3129 13.0825 11.2869C12.901 11.2609 13.198 10.8549 13.5857 10.6689C14.1653 10.3929 15.1904 10.3749 16.4031 10.3869C17.3436 10.3929 17.6221 10.4549 17.9892 10.5369C19.105 10.7989 18.7234 11.8049 18.7234 14.2189C18.7234 14.9949 18.5811 16.0809 19.1545 16.4369C19.3999 16.5929 20.0042 16.4609 21.5202 13.9689C22.2359 12.7869 22.7762 11.4009 22.7762 11.4009C22.7762 11.4009 22.8918 11.1509 23.0732 11.0449C23.2609 10.9389 23.5126 10.9709 23.5126 10.9709L26.9095 10.9529C26.9095 10.9529 27.9284 10.8349 28.0954 11.2849C28.2687 11.7529 27.7159 12.8469 26.3299 14.6409C24.055 17.5849 23.7972 17.3089 25.6926 19.0089C27.4973 20.6349 27.8706 21.4269 27.9366 21.5269C28.6709 22.7269 27.0993 22.8209 27.0993 22.8209H27.0951Z" fill="white"/>
</svg>
